<?xml version="1.0" encoding="UTF-8"?>
<!DOCTYPE svg PUBLIC "-//W3C//DTD SVG 1.1//EN" "http://www.w3.org/Graphics/SVG/1.1/DTD/svg11.dtd">
<svg xmlns="http://www.w3.org/2000/svg" version="1.1" width="241px" height="169px" style="shape-rendering:geometricPrecision; text-rendering:geometricPrecision; image-rendering:optimizeQuality; fill-rule:evenodd; clip-rule:evenodd" xmlns:xlink="http://www.w3.org/1999/xlink">
<g><path style="opacity:1" fill="#020302" d="M -0.5,-0.5 C 78.8333,-0.5 158.167,-0.5 237.5,-0.5C 238.263,1.36841 239.263,3.03508 240.5,4.5C 240.5,23.8333 240.5,43.1667 240.5,62.5C 235.154,61.906 229.82,61.2393 224.5,60.5C 226.356,55.4216 225.356,51.0883 221.5,47.5C 219.49,43.4901 216.49,40.4901 212.5,38.5C 186.213,42.4464 160.213,47.2798 134.5,53C 132.68,53.2004 131.347,54.0337 130.5,55.5C 128.833,55.5 127.167,55.5 125.5,55.5C 120.541,55.0653 115.874,55.8986 111.5,58C 90.5,58.3333 69.5,58.6667 48.5,59C 47.5,59.3333 46.5,59.6667 45.5,60C 42.5685,62.2845 39.9018,64.7845 37.5,67.5C 36.5655,68.5676 36.2322,69.901 36.5,71.5C 29.9442,72.3432 23.6109,73.6766 17.5,75.5C 16.8333,75.5 16.5,75.8333 16.5,76.5C 13.0751,89.7642 14.7418,102.431 21.5,114.5C 21.5299,115.497 21.0299,116.164 20,116.5C 17.651,115.024 15.4844,115.19 13.5,117C 14.448,117.483 15.448,117.649 16.5,117.5C 15.1718,121.84 15.1718,126.007 16.5,130C 16.1081,131.011 15.4415,131.511 14.5,131.5C 14.7093,132.086 15.0426,132.586 15.5,133C 13.8659,133.494 12.1992,133.66 10.5,133.5C 10.3802,136.205 11.3802,136.872 13.5,135.5C 14.7193,136.263 15.7193,137.263 16.5,138.5C 16.9743,140.862 17.3076,143.195 17.5,145.5C 18.1667,145.167 18.8333,144.833 19.5,144.5C 21.2903,146.316 23.2903,147.649 25.5,148.5C 25.9528,149.458 26.6195,150.292 27.5,151C 29.764,151.236 31.9307,151.736 34,152.5C 35.3241,149.756 37.4908,148.423 40.5,148.5C 39.2756,155.154 39.2756,161.82 40.5,168.5C 26.8333,168.5 13.1667,168.5 -0.5,168.5C -0.5,112.167 -0.5,55.8333 -0.5,-0.5 Z"/></g>
<g><path style="opacity:1" fill="#f2f2f1" d="M 237.5,-0.5 C 238.5,-0.5 239.5,-0.5 240.5,-0.5C 240.5,1.16667 240.5,2.83333 240.5,4.5C 239.263,3.03508 238.263,1.36841 237.5,-0.5 Z"/></g>
<g><path style="opacity:1" fill="#4d2e25" d="M 221.5,47.5 C 221.38,48.5862 220.713,49.2528 219.5,49.5C 215.655,50.1262 211.822,50.7929 208,51.5C 206.606,55.2637 203.44,57.2637 198.5,57.5C 199.66,55.7973 198.993,55.1307 196.5,55.5C 196.44,54.9569 196.107,54.6236 195.5,54.5C 191.194,55.312 186.861,55.9786 182.5,56.5C 180.833,56.5 179.167,56.5 177.5,56.5C 174.482,56.2962 171.482,55.9629 168.5,55.5C 168.5,56.5 168.5,57.5 168.5,58.5C 164.429,58.7662 160.429,58.4328 156.5,57.5C 150.9,60.7454 144.9,61.912 138.5,61C 137.833,60.3333 137.167,59.6667 136.5,59C 138.525,57.3228 140.859,56.3228 143.5,56C 141.101,55.289 138.768,55.4557 136.5,56.5C 135.304,56.1543 135.304,55.6543 136.5,55C 134.455,54.5099 132.455,54.6765 130.5,55.5C 131.347,54.0337 132.68,53.2004 134.5,53C 160.213,47.2798 186.213,42.4464 212.5,38.5C 216.49,40.4901 219.49,43.4901 221.5,47.5 Z"/></g>
<g><path style="opacity:1" fill="#3b261f" d="M 125.5,55.5 C 119.242,57.0809 112.909,58.5809 106.5,60C 89.1667,60.3333 71.8333,60.6667 54.5,61C 52.424,65.3199 49.5907,66.1532 46,63.5C 45.2917,64.3805 44.4584,65.0472 43.5,65.5C 41.3146,65.7036 39.3146,66.3702 37.5,67.5C 39.9018,64.7845 42.5685,62.2845 45.5,60C 46.5,59.6667 47.5,59.3333 48.5,59C 69.5,58.6667 90.5,58.3333 111.5,58C 115.874,55.8986 120.541,55.0653 125.5,55.5 Z"/></g>
<g><path style="opacity:1" fill="#54352e" d="M 177.5,56.5 C 174.039,57.9298 170.372,59.0965 166.5,60C 155.574,62.3212 144.574,64.3212 133.5,66C 131.992,67.5067 130.659,69.1733 129.5,71C 126.301,71.4008 123.301,72.2341 120.5,73.5C 123.759,71.8685 124.259,69.5351 122,66.5C 115.164,67.903 108.331,67.7364 101.5,66C 103.246,65.5291 104.913,64.8624 106.5,64C 97.1667,63.3333 97.1667,62.6667 106.5,62C 96.1539,61.6255 85.8206,61.9588 75.5,63C 78.1667,63.6667 78.1667,64.3333 75.5,65C 70.3137,66.7846 64.9804,67.6179 59.5,67.5C 59.5,66.1667 59.5,64.8333 59.5,63.5C 56.5696,64.5895 53.7362,65.9228 51,67.5C 48.7835,66.4683 46.6168,66.4683 44.5,67.5C 43.7025,67.0431 43.3691,66.3764 43.5,65.5C 44.4584,65.0472 45.2917,64.3805 46,63.5C 49.5907,66.1532 52.424,65.3199 54.5,61C 71.8333,60.6667 89.1667,60.3333 106.5,60C 112.909,58.5809 119.242,57.0809 125.5,55.5C 127.167,55.5 128.833,55.5 130.5,55.5C 132.455,54.6765 134.455,54.5099 136.5,55C 135.304,55.6543 135.304,56.1543 136.5,56.5C 138.768,55.4557 141.101,55.289 143.5,56C 140.859,56.3228 138.525,57.3228 136.5,59C 137.167,59.6667 137.833,60.3333 138.5,61C 144.9,61.912 150.9,60.7454 156.5,57.5C 160.429,58.4328 164.429,58.7662 168.5,58.5C 168.5,57.5 168.5,56.5 168.5,55.5C 171.482,55.9629 174.482,56.2962 177.5,56.5 Z"/></g>
<g><path style="opacity:1" fill="#050403" d="M 240.5,66.5 C 240.5,100.5 240.5,134.5 240.5,168.5C 178.167,168.5 115.833,168.5 53.5,168.5C 49.8851,166.722 46.3851,164.722 43,162.5C 41.9766,158.683 42.4766,155.183 44.5,152C 44.0426,151.586 43.7093,151.086 43.5,150.5C 45.1727,148.914 47.1727,148.247 49.5,148.5C 49.5,147.5 49.5,146.5 49.5,145.5C 55.0561,144.899 60.2228,145.899 65,148.5C 66.8895,148.215 68.2229,147.215 69,145.5C 70.883,146.653 71.7163,148.319 71.5,150.5C 78.4696,150.81 81.4696,154.477 80.5,161.5C 86.731,159.802 92.231,160.802 97,164.5C 99.5762,161.858 102.743,160.358 106.5,160C 103.964,159.661 101.464,159.161 99,158.5C 97.9701,158.164 97.4701,157.497 97.5,156.5C 100.95,157.244 102.616,155.91 102.5,152.5C 108.331,152.321 110.665,149.321 109.5,143.5C 110.833,143.5 112.167,143.5 113.5,143.5C 113.579,144.93 113.246,146.264 112.5,147.5C 113,147.833 113.5,148.167 114,148.5C 116.346,148.01 118.513,147.343 120.5,146.5C 121.167,146.167 121.833,145.833 122.5,145.5C 124.898,145.259 126.898,145.926 128.5,147.5C 126.952,147.821 126.285,148.821 126.5,150.5C 128.451,150.227 129.951,150.893 131,152.5C 134.57,150.008 138.07,150.008 141.5,152.5C 144.255,151.369 146.589,149.702 148.5,147.5C 151.748,148.645 155.081,149.479 158.5,150C 157.549,150.718 157.383,151.551 158,152.5C 160.376,153.376 161.876,155.042 162.5,157.5C 164.51,159.171 166.843,159.838 169.5,159.5C 171.068,153.966 172.068,148.299 172.5,142.5C 180.64,142.885 188.64,142.219 196.5,140.5C 196.238,139.022 196.571,137.689 197.5,136.5C 200.661,139.474 204.161,141.807 208,143.5C 208.167,142.333 208.333,141.167 208.5,140C 208.392,138.319 207.725,137.152 206.5,136.5C 205.391,136.557 204.391,136.89 203.5,137.5C 202.448,137.649 201.448,137.483 200.5,137C 199.385,134.869 198.052,133.035 196.5,131.5C 192.389,130.174 188.556,128.174 185,125.5C 183.401,126.071 182.234,127.071 181.5,128.5C 181.238,126.436 180.071,125.103 178,124.5C 177.442,119.601 176.275,114.935 174.5,110.5C 173.5,110.5 172.5,110.5 171.5,110.5C 171.737,109.209 171.404,108.209 170.5,107.5C 169.766,106.292 169.433,104.959 169.5,103.5C 169.5,102.5 169.5,101.5 169.5,100.5C 177.677,98.3753 186.01,97.3753 194.5,97.5C 194.5,96.1667 194.5,94.8333 194.5,93.5C 199.363,93.8195 204.03,93.4861 208.5,92.5C 209.776,91.6136 209.776,90.6136 208.5,89.5C 203.825,87.1181 198.825,85.7847 193.5,85.5C 188.165,83.7917 182.665,82.4584 177,81.5C 173.191,82.3218 169.358,82.9885 165.5,83.5C 162.751,83.2739 160.084,83.6072 157.5,84.5C 156.808,83.9747 156.308,83.3081 156,82.5C 155.064,84.7085 153.398,86.0418 151,86.5C 148.884,85.2573 146.718,84.0906 144.5,83C 146.592,82.0475 146.925,80.7141 145.5,79C 146.249,77.2663 146.749,75.433 147,73.5C 149.058,72.7709 150.891,71.7709 152.5,70.5C 153.568,69.5655 154.901,69.2322 156.5,69.5C 156.45,71.5901 157.45,72.9234 159.5,73.5C 160.386,72.675 160.719,71.675 160.5,70.5C 163.928,70.4535 166.928,69.2868 169.5,67C 184.232,65.2337 198.566,61.7337 212.5,56.5C 215.814,57.3007 218.814,58.8007 221.5,61C 219.588,62.2002 218.255,63.8669 217.5,66C 210.186,67.3067 202.853,68.4733 195.5,69.5C 195.709,70.086 196.043,70.586 196.5,71C 201.59,71.5725 206.59,71.0725 211.5,69.5C 214.159,70.4112 216.659,71.7445 219,73.5C 220.811,72.9221 222.645,72.4221 224.5,72C 225.337,70.9887 225.67,69.8221 225.5,68.5C 227.833,68.5 230.167,68.5 232.5,68.5C 232.312,70.1033 232.812,71.4366 234,72.5C 236.69,70.9731 238.857,68.9731 240.5,66.5 Z"/></g>
<g><path style="opacity:1" fill="#372520" d="M 177.5,56.5 C 179.167,56.5 180.833,56.5 182.5,56.5C 184.277,57.6005 186.277,58.4338 188.5,59C 184.214,59.9695 180.38,61.8029 177,64.5C 174.572,63.7106 174.072,62.3773 175.5,60.5C 173.027,59.4299 171.693,60.4299 171.5,63.5C 167.745,64.4812 164.078,65.6479 160.5,67C 156.296,66.7029 152.129,66.8696 148,67.5C 143.832,69.0787 139.665,70.412 135.5,71.5C 133.592,71.8834 132.092,72.8834 131,74.5C 129.274,73.4238 127.441,73.2571 125.5,74C 122.216,74.6496 119.216,75.8162 116.5,77.5C 116.5,76.5 116.5,75.5 116.5,74.5C 117.833,74.1667 119.167,73.8333 120.5,73.5C 123.301,72.2341 126.301,71.4008 129.5,71C 130.659,69.1733 131.992,67.5067 133.5,66C 144.574,64.3212 155.574,62.3212 166.5,60C 170.372,59.0965 174.039,57.9298 177.5,56.5 Z"/></g>
<g><path style="opacity:1" fill="#665654" d="M 175.5,60.5 C 177.836,58.6093 180.502,58.1093 183.5,59C 181.606,60.4038 179.606,61.5705 177.5,62.5C 176.287,62.2528 175.62,61.5862 175.5,60.5 Z"/></g>
<g><path style="opacity:1" fill="#160d09" d="M 221.5,47.5 C 225.356,51.0883 226.356,55.4216 224.5,60.5C 229.82,61.2393 235.154,61.906 240.5,62.5C 240.5,63.8333 240.5,65.1667 240.5,66.5C 238.857,68.9731 236.69,70.9731 234,72.5C 232.812,71.4366 232.312,70.1033 232.5,68.5C 230.167,68.5 227.833,68.5 225.5,68.5C 225.67,69.8221 225.337,70.9887 224.5,72C 222.645,72.4221 220.811,72.9221 219,73.5C 216.659,71.7445 214.159,70.4112 211.5,69.5C 206.59,71.0725 201.59,71.5725 196.5,71C 196.043,70.586 195.709,70.086 195.5,69.5C 202.853,68.4733 210.186,67.3067 217.5,66C 218.255,63.8669 219.588,62.2002 221.5,61C 218.814,58.8007 215.814,57.3007 212.5,56.5C 198.566,61.7337 184.232,65.2337 169.5,67C 166.928,69.2868 163.928,70.4535 160.5,70.5C 160.719,71.675 160.386,72.675 159.5,73.5C 157.45,72.9234 156.45,71.5901 156.5,69.5C 154.901,69.2322 153.568,69.5655 152.5,70.5C 147.153,72.9193 141.486,74.2527 135.5,74.5C 135.5,73.5 135.5,72.5 135.5,71.5C 139.665,70.412 143.832,69.0787 148,67.5C 152.129,66.8696 156.296,66.7029 160.5,67C 164.078,65.6479 167.745,64.4812 171.5,63.5C 171.693,60.4299 173.027,59.4299 175.5,60.5C 174.072,62.3773 174.572,63.7106 177,64.5C 180.38,61.8029 184.214,59.9695 188.5,59C 186.277,58.4338 184.277,57.6005 182.5,56.5C 186.861,55.9786 191.194,55.312 195.5,54.5C 196.107,54.6236 196.44,54.9569 196.5,55.5C 195.167,58.1667 195.833,58.8333 198.5,57.5C 203.44,57.2637 206.606,55.2637 208,51.5C 211.822,50.7929 215.655,50.1262 219.5,49.5C 220.713,49.2528 221.38,48.5862 221.5,47.5 Z"/></g>
<g><path style="opacity:1" fill="#806d6a" d="M 196.5,55.5 C 198.993,55.1307 199.66,55.7973 198.5,57.5C 195.833,58.8333 195.167,58.1667 196.5,55.5 Z"/></g>
<g><path style="opacity:1" fill="#937f7e" d="M 65.5,73.5 C 59.1629,82.68 52.9962,92.0134 47,101.5C 46.6012,101.272 46.4346,100.938 46.5,100.5C 48.5283,96.8164 50.5283,93.1497 52.5,89.5C 54.657,87.1959 56.3237,84.5293 57.5,81.5C 56.2715,78.6979 54.2715,76.5312 51.5,75C 52.0712,73.7949 52.7379,72.6283 53.5,71.5C 56.4474,72.7805 58.7807,74.7805 60.5,77.5C 60.8333,76.8333 61.1667,76.1667 61.5,75.5C 60.3489,73.6746 59.6822,71.6746 59.5,69.5C 62.8559,68.8622 64.8559,70.1956 65.5,73.5 Z"/></g>
<g><path style="opacity:1" fill="#2a1312" d="M 21.5,78.5 C 21.5,77.8333 21.5,77.1667 21.5,76.5C 31.4001,74.3638 41.4001,73.1972 51.5,73C 41.7582,76.1815 31.7582,78.0149 21.5,78.5 Z"/></g>
<g><path style="opacity:1" fill="#604340" d="M 120.5,73.5 C 119.167,73.8333 117.833,74.1667 116.5,74.5C 115.596,73.791 115.263,72.791 115.5,71.5C 113.801,71.3398 112.134,71.5065 110.5,72C 105.397,74.6171 100.73,77.7838 96.5,81.5C 95.6906,80.5313 94.6906,79.6979 93.5,79C 84.3603,76.1988 75.027,74.3655 65.5,73.5C 64.8559,70.1956 62.8559,68.8622 59.5,69.5C 59.6822,71.6746 60.3489,73.6746 61.5,75.5C 61.1667,76.1667 60.8333,76.8333 60.5,77.5C 58.7807,74.7805 56.4474,72.7805 53.5,71.5C 52.7379,72.6283 52.0712,73.7949 51.5,75C 54.2715,76.5312 56.2715,78.6979 57.5,81.5C 56.3237,84.5293 54.657,87.1959 52.5,89.5C 51.9032,88.8614 51.0698,88.528 50,88.5C 42.3561,91.0187 34.5227,92.6853 26.5,93.5C 25.12,88.4061 23.4533,83.4061 21.5,78.5C 31.7582,78.0149 41.7582,76.1815 51.5,73C 41.4001,73.1972 31.4001,74.3638 21.5,76.5C 20.4324,75.5655 19.099,75.2322 17.5,75.5C 23.6109,73.6766 29.9442,72.3432 36.5,71.5C 36.2322,69.901 36.5655,68.5676 37.5,67.5C 39.3146,66.3702 41.3146,65.7036 43.5,65.5C 43.3691,66.3764 43.7025,67.0431 44.5,67.5C 46.6168,66.4683 48.7835,66.4683 51,67.5C 53.7362,65.9228 56.5696,64.5895 59.5,63.5C 59.5,64.8333 59.5,66.1667 59.5,67.5C 64.9804,67.6179 70.3137,66.7846 75.5,65C 78.1667,64.3333 78.1667,63.6667 75.5,63C 85.8206,61.9588 96.1539,61.6255 106.5,62C 97.1667,62.6667 97.1667,63.3333 106.5,64C 104.913,64.8624 103.246,65.5291 101.5,66C 108.331,67.7364 115.164,67.903 122,66.5C 124.259,69.5351 123.759,71.8685 120.5,73.5 Z"/></g>
<g><path style="opacity:1" fill="#1f1411" d="M 89.5,74.5 C 91.8568,74.3367 94.1902,74.5034 96.5,75C 93.8681,78.2542 91.5347,78.0875 89.5,74.5 Z"/></g>
<g><path style="opacity:1" fill="#967f7b" d="M 17.5,75.5 C 19.099,75.2322 20.4324,75.5655 21.5,76.5C 21.5,77.1667 21.5,77.8333 21.5,78.5C 23.4533,83.4061 25.12,88.4061 26.5,93.5C 25.325,93.719 24.325,93.3857 23.5,92.5C 21.2795,89.2093 20.1128,85.5426 20,81.5C 18.5881,79.9354 17.4214,78.2687 16.5,76.5C 16.5,75.8333 16.8333,75.5 17.5,75.5 Z"/></g>
<g><path style="opacity:1" fill="#3e2c25" d="M 16.5,76.5 C 17.4214,78.2687 18.5881,79.9354 20,81.5C 20.1128,85.5426 21.2795,89.2093 23.5,92.5C 24.325,93.3857 25.325,93.719 26.5,93.5C 25.6071,95.9026 24.9404,98.4026 24.5,101C 25.7533,107.653 25.7533,114.153 24.5,120.5C 22.9397,118.844 21.9397,116.844 21.5,114.5C 14.7418,102.431 13.0751,89.7642 16.5,76.5 Z"/></g>
<g><path style="opacity:1" fill="#392925" d="M 193.5,85.5 C 198.825,85.7847 203.825,87.1181 208.5,89.5C 209.776,90.6136 209.776,91.6136 208.5,92.5C 204.5,92.5 200.5,92.5 196.5,92.5C 196.421,91.0695 196.754,89.7362 197.5,88.5C 196.675,87.6143 195.675,87.281 194.5,87.5C 194.167,86.8333 193.833,86.1667 193.5,85.5 Z"/></g>
<g><path style="opacity:1" fill="#0e0604" d="M 52.5,89.5 C 50.5283,93.1497 48.5283,96.8164 46.5,100.5C 42.4561,107.609 39.7894,115.275 38.5,123.5C 36.4004,123.477 34.5671,124.144 33,125.5C 33.054,124.189 32.054,123.189 30,122.5C 28.5936,123.414 27.0936,124.08 25.5,124.5C 24.7611,124.631 24.0944,124.464 23.5,124C 24.3366,122.989 24.67,121.822 24.5,120.5C 25.7533,114.153 25.7533,107.653 24.5,101C 24.9404,98.4026 25.6071,95.9026 26.5,93.5C 34.5227,92.6853 42.3561,91.0187 50,88.5C 51.0698,88.528 51.9032,88.8614 52.5,89.5 Z"/></g>
<g><path style="opacity:1" fill="#241612" d="M 194.5,87.5 C 195.675,87.281 196.675,87.6143 197.5,88.5C 196.754,89.7362 196.421,91.0695 196.5,92.5C 200.5,92.5 204.5,92.5 208.5,92.5C 204.03,93.4861 199.363,93.8195 194.5,93.5C 194.5,94.8333 194.5,96.1667 194.5,97.5C 186.01,97.3753 177.677,98.3753 169.5,100.5C 169.5,101.5 169.5,102.5 169.5,103.5C 168.549,102.081 168.216,100.415 168.5,98.5C 170.783,98.3921 172.783,97.5588 174.5,96C 173.376,95.7508 172.376,95.2508 171.5,94.5C 175.208,92.1393 179.208,91.3059 183.5,92C 181.595,92.8261 181.261,93.9928 182.5,95.5C 185.717,94.0282 189.051,92.8615 192.5,92C 191.377,90.9563 190.044,90.2896 188.5,90C 190.488,89.0617 192.488,88.2283 194.5,87.5 Z"/></g>
<g><path style="opacity:1" fill="#422f2d" d="M 65.5,73.5 C 75.027,74.3655 84.3603,76.1988 93.5,79C 94.6906,79.6979 95.6906,80.5313 96.5,81.5C 96.0831,82.1239 95.4164,82.4573 94.5,82.5C 85.3163,81.2683 76.483,78.935 68,75.5C 66.1012,75.8983 64.6012,76.8983 63.5,78.5C 60.6983,84.7676 57.365,90.7676 53.5,96.5C 54.723,97.6139 56.0563,97.7805 57.5,97C 60.7084,92.7529 63.5417,88.2529 66,83.5C 68.6534,80.8059 71.8201,79.9726 75.5,81C 81.7349,82.9756 88.0682,84.4756 94.5,85.5C 94.395,89.3189 93.5617,92.9855 92,96.5C 88.7892,99.2207 85.7892,102.221 83,105.5C 82.51,106.793 82.3433,108.127 82.5,109.5C 78.8121,109.219 75.1454,108.719 71.5,108C 64.6793,104.738 57.5127,102.571 50,101.5C 48.5272,101.903 47.1939,102.57 46,103.5C 43.9554,108.785 42.4554,114.118 41.5,119.5C 49.5812,117.054 56.5812,118.721 62.5,124.5C 60.939,125.347 59.439,125.014 58,123.5C 57.6924,124.308 57.1924,124.975 56.5,125.5C 55.1072,124.137 53.4405,123.304 51.5,123C 55.9799,122.707 56.3133,121.874 52.5,120.5C 48.9398,122.146 45.2731,123.646 41.5,125C 41.6782,127.955 41.6782,131.121 41.5,134.5C 40.7011,132.261 39.3678,130.261 37.5,128.5C 35.7869,128.879 34.7869,129.879 34.5,131.5C 31.3878,131.276 28.2212,131.276 25,131.5C 24.5357,130.906 24.369,130.239 24.5,129.5C 28.171,129.039 31.8377,128.705 35.5,128.5C 35.5,127.5 35.5,126.5 35.5,125.5C 36.9778,125.762 38.3112,125.429 39.5,124.5C 39.3764,123.893 39.0431,123.56 38.5,123.5C 39.7894,115.275 42.4561,107.609 46.5,100.5C 46.4346,100.938 46.6012,101.272 47,101.5C 52.9962,92.0134 59.1629,82.68 65.5,73.5 Z"/></g>
<g><path style="opacity:1" fill="#573f39" d="M 193.5,85.5 C 193.833,86.1667 194.167,86.8333 194.5,87.5C 192.488,88.2283 190.488,89.0617 188.5,90C 190.044,90.2896 191.377,90.9563 192.5,92C 189.051,92.8615 185.717,94.0282 182.5,95.5C 181.261,93.9928 181.595,92.8261 183.5,92C 179.208,91.3059 175.208,92.1393 171.5,94.5C 172.376,95.2508 173.376,95.7508 174.5,96C 172.783,97.5588 170.783,98.3921 168.5,98.5C 168.216,100.415 168.549,102.081 169.5,103.5C 169.433,104.959 169.766,106.292 170.5,107.5C 170.971,111.356 171.638,115.189 172.5,119C 172.472,120.07 172.139,120.903 171.5,121.5C 170.339,119.553 168.672,118.72 166.5,119C 166.833,119.333 167.167,119.667 167.5,120C 166.809,121.067 166.309,122.234 166,123.5C 165.43,120.156 164.264,119.823 162.5,122.5C 161.289,121.726 161.289,120.893 162.5,120C 160.122,119.026 160.456,118.359 163.5,118C 162.975,117.308 162.308,116.808 161.5,116.5C 160.088,117.806 158.421,118.64 156.5,119C 157.056,119.383 157.389,119.883 157.5,120.5C 156.45,120.905 156.45,121.571 157.5,122.5C 156.743,123.773 156.077,123.773 155.5,122.5C 153.954,120.118 153.287,117.451 153.5,114.5C 154.75,114.423 155.583,113.756 156,112.5C 156.54,114.135 156.04,115.468 154.5,116.5C 155.689,117.429 157.022,117.762 158.5,117.5C 159.138,115.201 160.138,113.034 161.5,111C 161.272,110.601 160.938,110.435 160.5,110.5C 160.925,104.278 158.758,99.2782 154,95.5C 153.215,93.751 152.382,92.0843 151.5,90.5C 155.464,86.6313 160.131,84.298 165.5,83.5C 169.358,82.9885 173.191,82.3218 177,81.5C 182.665,82.4584 188.165,83.7917 193.5,85.5 Z"/></g>
<g><path style="opacity:1" fill="#0e0704" d="M 152.5,70.5 C 150.891,71.7709 149.058,72.7709 147,73.5C 146.749,75.433 146.249,77.2663 145.5,79C 146.925,80.7141 146.592,82.0475 144.5,83C 146.718,84.0906 148.884,85.2573 151,86.5C 153.398,86.0418 155.064,84.7085 156,82.5C 156.308,83.3081 156.808,83.9747 157.5,84.5C 160.084,83.6072 162.751,83.2739 165.5,83.5C 160.131,84.298 155.464,86.6313 151.5,90.5C 149.7,91.8948 149.366,93.5615 150.5,95.5C 151.086,95.2907 151.586,94.9574 152,94.5C 152.226,97.095 152.726,99.595 153.5,102C 151.355,103.289 149.022,104.122 146.5,104.5C 145.22,103.069 143.553,102.402 141.5,102.5C 140.417,102.461 139.417,102.127 138.5,101.5C 136.827,103.086 134.827,103.753 132.5,103.5C 132.5,102.5 132.5,101.5 132.5,100.5C 130.133,101.164 128.133,102.497 126.5,104.5C 122.715,101.874 119.382,102.208 116.5,105.5C 114.323,104.496 113.989,105.162 115.5,107.5C 116.376,108.251 117.376,108.751 118.5,109C 117.5,110 116.5,111 115.5,112C 117.577,112.192 119.577,112.692 121.5,113.5C 117.903,115.431 115.903,118.431 115.5,122.5C 113.352,122.611 113.019,121.944 114.5,120.5C 113.672,119.585 112.672,118.919 111.5,118.5C 109.584,119.248 107.584,119.248 105.5,118.5C 100.258,121.413 94.5911,123.247 88.5,124C 84.5292,126.132 81.8625,129.299 80.5,133.5C 77.6346,134.783 74.6346,134.783 71.5,133.5C 70.5,134.5 69.5,135.5 68.5,136.5C 69.2427,137.182 69.9094,137.849 70.5,138.5C 70.5,139.833 70.5,141.167 70.5,142.5C 72.8056,142.993 75.139,143.326 77.5,143.5C 77.6423,146.617 78.9756,149.117 81.5,151C 84.6747,150.13 88.008,149.63 91.5,149.5C 91.4012,152.673 92.0678,155.673 93.5,158.5C 94.6223,157.37 95.9557,156.703 97.5,156.5C 97.4701,157.497 97.9701,158.164 99,158.5C 101.464,159.161 103.964,159.661 106.5,160C 102.743,160.358 99.5762,161.858 97,164.5C 92.231,160.802 86.731,159.802 80.5,161.5C 81.4696,154.477 78.4696,150.81 71.5,150.5C 71.7163,148.319 70.883,146.653 69,145.5C 68.2229,147.215 66.8895,148.215 65,148.5C 60.2228,145.899 55.0561,144.899 49.5,145.5C 49.5,146.5 49.5,147.5 49.5,148.5C 47.1727,148.247 45.1727,148.914 43.5,150.5C 43.7093,151.086 44.0426,151.586 44.5,152C 42.4766,155.183 41.9766,158.683 43,162.5C 46.3851,164.722 49.8851,166.722 53.5,168.5C 49.1667,168.5 44.8333,168.5 40.5,168.5C 39.2756,161.82 39.2756,155.154 40.5,148.5C 37.4908,148.423 35.3241,149.756 34,152.5C 31.9307,151.736 29.764,151.236 27.5,151C 26.6195,150.292 25.9528,149.458 25.5,148.5C 26.7432,146.036 27.7432,143.37 28.5,140.5C 31.501,141.665 34.1676,143.332 36.5,145.5C 38.7896,146.808 41.4562,146.808 44.5,145.5C 44.4802,143.857 45.1468,142.524 46.5,141.5C 45.6798,139.889 44.3464,139.222 42.5,139.5C 42.7373,138.209 42.404,137.209 41.5,136.5C 41.5,135.833 41.5,135.167 41.5,134.5C 41.6782,131.121 41.6782,127.955 41.5,125C 45.2731,123.646 48.9398,122.146 52.5,120.5C 56.3133,121.874 55.9799,122.707 51.5,123C 53.4405,123.304 55.1072,124.137 56.5,125.5C 57.1924,124.975 57.6924,124.308 58,123.5C 59.439,125.014 60.939,125.347 62.5,124.5C 56.5812,118.721 49.5812,117.054 41.5,119.5C 42.4554,114.118 43.9554,108.785 46,103.5C 47.1939,102.57 48.5272,101.903 50,101.5C 57.5127,102.571 64.6793,104.738 71.5,108C 75.1454,108.719 78.8121,109.219 82.5,109.5C 82.3433,108.127 82.51,106.793 83,105.5C 85.7892,102.221 88.7892,99.2207 92,96.5C 93.5617,92.9855 94.395,89.3189 94.5,85.5C 88.0682,84.4756 81.7349,82.9756 75.5,81C 71.8201,79.9726 68.6534,80.8059 66,83.5C 63.5417,88.2529 60.7084,92.7529 57.5,97C 56.0563,97.7805 54.723,97.6139 53.5,96.5C 57.365,90.7676 60.6983,84.7676 63.5,78.5C 64.6012,76.8983 66.1012,75.8983 68,75.5C 76.483,78.935 85.3163,81.2683 94.5,82.5C 95.4164,82.4573 96.0831,82.1239 96.5,81.5C 100.73,77.7838 105.397,74.6171 110.5,72C 112.134,71.5065 113.801,71.3398 115.5,71.5C 115.263,72.791 115.596,73.791 116.5,74.5C 116.5,75.5 116.5,76.5 116.5,77.5C 119.216,75.8162 122.216,74.6496 125.5,74C 127.441,73.2571 129.274,73.4238 131,74.5C 132.092,72.8834 133.592,71.8834 135.5,71.5C 135.5,72.5 135.5,73.5 135.5,74.5C 141.486,74.2527 147.153,72.9193 152.5,70.5 Z"/></g>
<g><path style="opacity:1" fill="#37211c" d="M 151.5,90.5 C 152.382,92.0843 153.215,93.751 154,95.5C 158.758,99.2782 160.925,104.278 160.5,110.5C 159.85,110.804 159.183,111.137 158.5,111.5C 157.304,111.154 157.304,110.654 158.5,110C 157.552,109.517 156.552,109.351 155.5,109.5C 153.04,105.95 150.04,105.617 146.5,108.5C 145.708,107.3 145.708,105.967 146.5,104.5C 149.022,104.122 151.355,103.289 153.5,102C 152.726,99.595 152.226,97.095 152,94.5C 151.586,94.9574 151.086,95.2907 150.5,95.5C 149.366,93.5615 149.7,91.8948 151.5,90.5 Z"/></g>
<g><path style="opacity:1" fill="#482e25" d="M 141.5,102.5 C 141.5,103.5 141.5,104.5 141.5,105.5C 139.453,105.489 137.453,105.156 135.5,104.5C 130.569,106.786 126.235,109.786 122.5,113.5C 122.808,114.308 123.308,114.975 124,115.5C 124.71,114.027 125.876,113.36 127.5,113.5C 127.386,115.718 126.72,117.718 125.5,119.5C 123.473,119.338 121.473,119.505 119.5,120C 118.529,121.481 117.196,122.315 115.5,122.5C 115.903,118.431 117.903,115.431 121.5,113.5C 119.577,112.692 117.577,112.192 115.5,112C 116.5,111 117.5,110 118.5,109C 117.376,108.751 116.376,108.251 115.5,107.5C 113.989,105.162 114.323,104.496 116.5,105.5C 119.382,102.208 122.715,101.874 126.5,104.5C 128.133,102.497 130.133,101.164 132.5,100.5C 132.5,101.5 132.5,102.5 132.5,103.5C 134.827,103.753 136.827,103.086 138.5,101.5C 139.417,102.127 140.417,102.461 141.5,102.5 Z"/></g>
<g><path style="opacity:1" fill="#8c6656" d="M 155.5,109.5 C 156.552,109.351 157.552,109.517 158.5,110C 157.304,110.654 157.304,111.154 158.5,111.5C 159.183,111.137 159.85,110.804 160.5,110.5C 160.938,110.435 161.272,110.601 161.5,111C 160.138,113.034 159.138,115.201 158.5,117.5C 157.022,117.762 155.689,117.429 154.5,116.5C 156.04,115.468 156.54,114.135 156,112.5C 155.583,113.756 154.75,114.423 153.5,114.5C 153.365,112.446 154.032,110.779 155.5,109.5 Z"/></g>
<g><path style="opacity:1" fill="#4b3b35" d="M 110.5,108.5 C 112.355,108.272 113.188,108.939 113,110.5C 111.06,113.402 108.56,114.402 105.5,113.5C 107.521,112.145 109.188,110.479 110.5,108.5 Z"/></g>
<g><path style="opacity:1" fill="#341f15" d="M 170.5,107.5 C 171.404,108.209 171.737,109.209 171.5,110.5C 172.5,110.5 173.5,110.5 174.5,110.5C 176.275,114.935 177.442,119.601 178,124.5C 180.071,125.103 181.238,126.436 181.5,128.5C 180.25,128.577 179.417,129.244 179,130.5C 178.612,129.572 177.945,128.905 177,128.5C 174.679,129.928 172.845,129.428 171.5,127C 172.444,125.523 173.777,124.523 175.5,124C 173.68,123.8 172.347,122.966 171.5,121.5C 172.139,120.903 172.472,120.07 172.5,119C 171.638,115.189 170.971,111.356 170.5,107.5 Z"/></g>
<g><path style="opacity:1" fill="#21120d" d="M 105.5,118.5 C 107.584,119.248 109.584,119.248 111.5,118.5C 112.672,118.919 113.672,119.585 114.5,120.5C 113.019,121.944 113.352,122.611 115.5,122.5C 117.196,122.315 118.529,121.481 119.5,120C 121.473,119.505 123.473,119.338 125.5,119.5C 125.5,120.167 125.5,120.833 125.5,121.5C 124.683,123.969 124.183,126.635 124,129.5C 122.783,127.48 122.617,125.48 123.5,123.5C 122.833,123.167 122.167,122.833 121.5,122.5C 118.855,123.108 116.188,123.608 113.5,124C 115.384,124.216 117.051,124.883 118.5,126C 115.896,126.39 113.562,127.224 111.5,128.5C 110.167,129.167 108.833,129.833 107.5,130.5C 106.5,129.833 105.5,129.167 104.5,128.5C 104.577,127.25 105.244,126.417 106.5,126C 104.926,125.301 103.593,125.635 102.5,127C 98.8484,127.499 95.1817,127.665 91.5,127.5C 96.073,124.535 100.74,121.535 105.5,118.5 Z"/></g>
<g><path style="opacity:1" fill="#100803" d="M 153.5,114.5 C 153.287,117.451 153.954,120.118 155.5,122.5C 154.194,122.879 152.861,123.212 151.5,123.5C 151.977,124.478 152.643,125.311 153.5,126C 149.283,126.987 145.116,128.153 141,129.5C 139.829,128.66 138.662,127.827 137.5,127C 138.939,126.009 139.939,124.676 140.5,123C 139.833,122.667 139.167,122.333 138.5,122C 141.793,121.745 142.96,120.245 142,117.5C 143.397,115.93 144.897,114.596 146.5,113.5C 147.496,113.586 148.329,113.252 149,112.5C 150.33,113.582 151.83,114.249 153.5,114.5 Z"/></g>
<g><path style="opacity:1" fill="#674e48" d="M 141.5,102.5 C 143.553,102.402 145.22,103.069 146.5,104.5C 145.708,105.967 145.708,107.3 146.5,108.5C 150.04,105.617 153.04,105.95 155.5,109.5C 154.032,110.779 153.365,112.446 153.5,114.5C 151.83,114.249 150.33,113.582 149,112.5C 148.329,113.252 147.496,113.586 146.5,113.5C 142.535,112.516 142.535,111.516 146.5,110.5C 144.579,109.359 142.579,109.192 140.5,110C 140.833,110.333 141.167,110.667 141.5,111C 137.396,115.586 134.396,120.752 132.5,126.5C 130.654,128.455 128.321,129.455 125.5,129.5C 125.5,126.833 125.5,124.167 125.5,121.5C 125.5,120.833 125.5,120.167 125.5,119.5C 126.72,117.718 127.386,115.718 127.5,113.5C 125.876,113.36 124.71,114.027 124,115.5C 123.308,114.975 122.808,114.308 122.5,113.5C 126.235,109.786 130.569,106.786 135.5,104.5C 137.453,105.156 139.453,105.489 141.5,105.5C 141.5,104.5 141.5,103.5 141.5,102.5 Z"/></g>
<g><path style="opacity:1" fill="#251611" d="M 146.5,113.5 C 144.897,114.596 143.397,115.93 142,117.5C 142.96,120.245 141.793,121.745 138.5,122C 139.167,122.333 139.833,122.667 140.5,123C 139.939,124.676 138.939,126.009 137.5,127C 138.662,127.827 139.829,128.66 141,129.5C 145.116,128.153 149.283,126.987 153.5,126C 152.643,125.311 151.977,124.478 151.5,123.5C 152.861,123.212 154.194,122.879 155.5,122.5C 156.077,123.773 156.743,123.773 157.5,122.5C 156.45,121.571 156.45,120.905 157.5,120.5C 158.478,120.811 159.145,121.478 159.5,122.5C 158.451,124.216 157.118,125.549 155.5,126.5C 150.211,129.172 144.544,130.838 138.5,131.5C 137.289,130.726 137.289,129.893 138.5,129C 136.505,128.387 134.838,128.887 133.5,130.5C 132.566,129.432 132.232,128.099 132.5,126.5C 134.396,120.752 137.396,115.586 141.5,111C 141.167,110.667 140.833,110.333 140.5,110C 142.579,109.192 144.579,109.359 146.5,110.5C 142.535,111.516 142.535,112.516 146.5,113.5 Z"/></g>
<g><path style="opacity:1" fill="#6f5247" d="M 38.5,123.5 C 39.0431,123.56 39.3764,123.893 39.5,124.5C 38.3112,125.429 36.9778,125.762 35.5,125.5C 35.5,126.5 35.5,127.5 35.5,128.5C 31.8377,128.705 28.171,129.039 24.5,129.5C 21.7632,129.927 21.9299,129.26 25,127.5C 25.4828,126.552 25.6495,125.552 25.5,124.5C 27.0936,124.08 28.5936,123.414 30,122.5C 32.054,123.189 33.054,124.189 33,125.5C 34.5671,124.144 36.4004,123.477 38.5,123.5 Z"/></g>
<g><path style="opacity:1" fill="#4e3126" d="M 125.5,121.5 C 125.5,124.167 125.5,126.833 125.5,129.5C 128.321,129.455 130.654,128.455 132.5,126.5C 132.232,128.099 132.566,129.432 133.5,130.5C 133.389,131.117 133.056,131.617 132.5,132C 128.587,131.56 125.921,133.06 124.5,136.5C 125.894,137.687 125.727,138.354 124,138.5C 122.941,138.37 122.108,137.87 121.5,137C 122.364,134.929 123.697,133.262 125.5,132C 122.66,133.132 119.66,133.798 116.5,134C 117.191,132.933 117.691,131.766 118,130.5C 119.557,131.205 120.723,130.539 121.5,128.5C 118.193,128.434 115.693,130.1 114,133.5C 113.95,131.256 113.117,129.589 111.5,128.5C 113.562,127.224 115.896,126.39 118.5,126C 117.051,124.883 115.384,124.216 113.5,124C 116.188,123.608 118.855,123.108 121.5,122.5C 122.167,122.833 122.833,123.167 123.5,123.5C 122.617,125.48 122.783,127.48 124,129.5C 124.183,126.635 124.683,123.969 125.5,121.5 Z"/></g>
<g><path style="opacity:1" fill="#4e3024" d="M 105.5,118.5 C 100.74,121.535 96.073,124.535 91.5,127.5C 91.2036,130.263 90.2036,132.763 88.5,135C 85.9543,134.368 83.2876,133.868 80.5,133.5C 81.8625,129.299 84.5292,126.132 88.5,124C 94.5911,123.247 100.258,121.413 105.5,118.5 Z"/></g>
<g><path style="opacity:1" fill="#836154" d="M 171.5,121.5 C 172.347,122.966 173.68,123.8 175.5,124C 173.777,124.523 172.444,125.523 171.5,127C 172.845,129.428 174.679,129.928 177,128.5C 177.945,128.905 178.612,129.572 179,130.5C 179.417,129.244 180.25,128.577 181.5,128.5C 184.092,130.089 184.092,131.755 181.5,133.5C 183.003,133.835 184.336,133.835 185.5,133.5C 185.123,135.824 184.123,136.491 182.5,135.5C 181.478,135.855 180.811,136.522 180.5,137.5C 180.167,137.5 179.833,137.5 179.5,137.5C 178.768,136.192 177.934,134.858 177,133.5C 175.565,135.211 173.731,136.378 171.5,137C 171.957,137.414 172.291,137.914 172.5,138.5C 170.604,139.466 168.604,139.799 166.5,139.5C 165.472,138.926 164.472,138.593 163.5,138.5C 165.22,137.066 167.22,136.233 169.5,136C 169.167,135.667 168.833,135.333 168.5,135C 170.037,133.89 170.703,132.39 170.5,130.5C 169.167,130.5 167.833,130.5 166.5,130.5C 166.074,129.472 166.074,128.139 166.5,126.5C 169.166,126.934 170.333,125.934 170,123.5C 166.321,124.885 162.488,125.718 158.5,126C 159.337,127.011 159.67,128.178 159.5,129.5C 157.533,129.261 155.699,129.594 154,130.5C 154.143,129.135 154.643,127.802 155.5,126.5C 157.118,125.549 158.451,124.216 159.5,122.5C 159.145,121.478 158.478,120.811 157.5,120.5C 157.389,119.883 157.056,119.383 156.5,119C 158.421,118.64 160.088,117.806 161.5,116.5C 162.308,116.808 162.975,117.308 163.5,118C 160.456,118.359 160.122,119.026 162.5,120C 161.289,120.893 161.289,121.726 162.5,122.5C 164.264,119.823 165.43,120.156 166,123.5C 166.309,122.234 166.809,121.067 167.5,120C 167.167,119.667 166.833,119.333 166.5,119C 168.672,118.72 170.339,119.553 171.5,121.5 Z"/></g>
<g><path style="opacity:1" fill="#725245" d="M 166.5,130.5 C 166.217,131.289 165.717,131.956 165,132.5C 163.246,130.75 161.079,130.083 158.5,130.5C 158.64,132.124 157.973,133.29 156.5,134C 156.833,134.333 157.167,134.667 157.5,135C 159.258,134.656 161.091,134.156 163,133.5C 163.833,133.833 164.667,134.167 165.5,134.5C 161.342,136.326 157.842,138.993 155,142.5C 154.108,138.827 152.608,138.66 150.5,142C 150.957,142.414 151.291,142.914 151.5,143.5C 149.167,144.833 146.833,144.833 144.5,143.5C 145.877,141.711 146.877,139.711 147.5,137.5C 148.716,136.904 150.049,136.737 151.5,137C 153.174,135.494 154.174,133.661 154.5,131.5C 153.167,131.5 151.833,131.5 150.5,131.5C 150.5,132.5 150.5,133.5 150.5,134.5C 148.535,133.871 146.535,133.204 144.5,132.5C 141.813,132.538 141.146,133.538 142.5,135.5C 140.605,137.288 138.938,139.288 137.5,141.5C 132.651,139.395 127.651,139.062 122.5,140.5C 122.5,142.167 122.5,143.833 122.5,145.5C 121.833,145.833 121.167,146.167 120.5,146.5C 119.127,146.657 117.793,146.49 116.5,146C 117.416,145.722 118.082,145.222 118.5,144.5C 120.176,143.817 120.843,142.483 120.5,140.5C 119.5,140.5 118.5,140.5 117.5,140.5C 116.469,135.865 113.803,134.198 109.5,135.5C 108.143,133.501 108.81,132.335 111.5,132C 109.942,131.79 108.609,131.29 107.5,130.5C 108.833,129.833 110.167,129.167 111.5,128.5C 113.117,129.589 113.95,131.256 114,133.5C 115.693,130.1 118.193,128.434 121.5,128.5C 120.723,130.539 119.557,131.205 118,130.5C 117.691,131.766 117.191,132.933 116.5,134C 119.66,133.798 122.66,133.132 125.5,132C 123.697,133.262 122.364,134.929 121.5,137C 122.108,137.87 122.941,138.37 124,138.5C 125.727,138.354 125.894,137.687 124.5,136.5C 125.921,133.06 128.587,131.56 132.5,132C 133.056,131.617 133.389,131.117 133.5,130.5C 134.838,128.887 136.505,128.387 138.5,129C 137.289,129.893 137.289,130.726 138.5,131.5C 144.544,130.838 150.211,129.172 155.5,126.5C 154.643,127.802 154.143,129.135 154,130.5C 155.699,129.594 157.533,129.261 159.5,129.5C 159.67,128.178 159.337,127.011 158.5,126C 162.488,125.718 166.321,124.885 170,123.5C 170.333,125.934 169.166,126.934 166.5,126.5C 166.074,128.139 166.074,129.472 166.5,130.5 Z"/></g>
<g><path style="opacity:1" fill="#453126" d="M 196.5,131.5 C 195.325,131.281 194.325,131.614 193.5,132.5C 194.326,133.451 194.492,134.451 194,135.5C 192.2,137.145 190.2,138.478 188,139.5C 185.564,138.645 183.064,137.979 180.5,137.5C 180.811,136.522 181.478,135.855 182.5,135.5C 184.123,136.491 185.123,135.824 185.5,133.5C 184.336,133.835 183.003,133.835 181.5,133.5C 184.092,131.755 184.092,130.089 181.5,128.5C 182.234,127.071 183.401,126.071 185,125.5C 188.556,128.174 192.389,130.174 196.5,131.5 Z"/></g>
<g><path style="opacity:1" fill="#573c2f" d="M 179.5,137.5 C 175.408,140.227 171.074,140.894 166.5,139.5C 168.604,139.799 170.604,139.466 172.5,138.5C 172.291,137.914 171.957,137.414 171.5,137C 173.731,136.378 175.565,135.211 177,133.5C 177.934,134.858 178.768,136.192 179.5,137.5 Z"/></g>
<g><path style="opacity:1" fill="#74574d" d="M 104.5,128.5 C 103.624,128.369 102.957,128.702 102.5,129.5C 104.294,131.535 104.627,133.702 103.5,136C 106.707,139.925 108.04,144.425 107.5,149.5C 106.325,149.719 105.325,149.386 104.5,148.5C 106.5,143.167 104.833,141.5 99.5,143.5C 96.7368,140.934 94.0701,140.934 91.5,143.5C 91.5,141.833 91.5,140.167 91.5,138.5C 89.4305,138.551 87.5971,137.885 86,136.5C 84.518,138.112 82.6847,139.112 80.5,139.5C 80.7692,141.429 80.2692,143.095 79,144.5C 76.8927,142.667 74.3927,141.501 71.5,141C 72.566,139.841 72.2327,139.008 70.5,138.5C 69.9094,137.849 69.2427,137.182 68.5,136.5C 69.5,135.5 70.5,134.5 71.5,133.5C 74.6346,134.783 77.6346,134.783 80.5,133.5C 83.2876,133.868 85.9543,134.368 88.5,135C 90.2036,132.763 91.2036,130.263 91.5,127.5C 95.1817,127.665 98.8484,127.499 102.5,127C 103.593,125.635 104.926,125.301 106.5,126C 105.244,126.417 104.577,127.25 104.5,128.5 Z"/></g>
<g><path style="opacity:1" fill="#86706a" d="M 104.5,128.5 C 105.5,129.167 106.5,129.833 107.5,130.5C 108.609,131.29 109.942,131.79 111.5,132C 108.81,132.335 108.143,133.501 109.5,135.5C 109.5,138.167 109.5,140.833 109.5,143.5C 108.833,145.5 108.167,147.5 107.5,149.5C 108.04,144.425 106.707,139.925 103.5,136C 104.627,133.702 104.294,131.535 102.5,129.5C 102.957,128.702 103.624,128.369 104.5,128.5 Z"/></g>
<g><path style="opacity:1" fill="#4d352d" d="M 117.5,140.5 C 114.675,140.919 112.509,139.919 111,137.5C 110.51,138.793 110.343,140.127 110.5,141.5C 113.167,142.5 115.833,143.5 118.5,144.5C 118.082,145.222 117.416,145.722 116.5,146C 117.793,146.49 119.127,146.657 120.5,146.5C 118.513,147.343 116.346,148.01 114,148.5C 113.5,148.167 113,147.833 112.5,147.5C 113.246,146.264 113.579,144.93 113.5,143.5C 112.167,143.5 110.833,143.5 109.5,143.5C 109.5,140.833 109.5,138.167 109.5,135.5C 113.803,134.198 116.469,135.865 117.5,140.5 Z"/></g>
<g><path style="opacity:1" fill="#796057" d="M 41.5,134.5 C 41.5,135.167 41.5,135.833 41.5,136.5C 41.5198,138.143 40.8532,139.476 39.5,140.5C 36.8333,141.833 34.1667,141.833 31.5,140.5C 32.4033,138.38 33.7367,138.046 35.5,139.5C 36.3567,138.264 37.0234,136.931 37.5,135.5C 36.7261,134.289 35.8928,134.289 35,135.5C 34.51,134.207 34.3433,132.873 34.5,131.5C 34.7869,129.879 35.7869,128.879 37.5,128.5C 39.3678,130.261 40.7011,132.261 41.5,134.5 Z"/></g>
<g><path style="opacity:1" fill="#2e1912" d="M 117.5,140.5 C 118.5,140.5 119.5,140.5 120.5,140.5C 120.843,142.483 120.176,143.817 118.5,144.5C 115.833,143.5 113.167,142.5 110.5,141.5C 110.343,140.127 110.51,138.793 111,137.5C 112.509,139.919 114.675,140.919 117.5,140.5 Z"/></g>
<g><path style="opacity:1" fill="#4b2c20" d="M 166.5,130.5 C 167.833,130.5 169.167,130.5 170.5,130.5C 170.703,132.39 170.037,133.89 168.5,135C 168.833,135.333 169.167,135.667 169.5,136C 167.22,136.233 165.22,137.066 163.5,138.5C 164.472,138.593 165.472,138.926 166.5,139.5C 164.865,140.815 163.199,140.815 161.5,139.5C 159.377,141.31 157.043,142.643 154.5,143.5C 154.5,144.5 154.5,145.5 154.5,146.5C 152.192,146.086 149.858,145.753 147.5,145.5C 144.802,146.191 142.135,146.858 139.5,147.5C 140.398,146.842 141.398,146.176 142.5,145.5C 141.975,144.808 141.308,144.308 140.5,144C 141.973,143.29 142.64,142.124 142.5,140.5C 141.5,140.5 140.5,140.5 139.5,140.5C 138.833,142.5 138.167,144.5 137.5,146.5C 133.901,146.738 133.567,145.738 136.5,143.5C 132.023,141.962 129.689,143.629 129.5,148.5C 128.833,148.5 128.5,148.167 128.5,147.5C 126.898,145.926 124.898,145.259 122.5,145.5C 122.5,143.833 122.5,142.167 122.5,140.5C 127.651,139.062 132.651,139.395 137.5,141.5C 138.938,139.288 140.605,137.288 142.5,135.5C 141.146,133.538 141.813,132.538 144.5,132.5C 146.535,133.204 148.535,133.871 150.5,134.5C 150.5,133.5 150.5,132.5 150.5,131.5C 151.833,131.5 153.167,131.5 154.5,131.5C 154.174,133.661 153.174,135.494 151.5,137C 150.049,136.737 148.716,136.904 147.5,137.5C 146.877,139.711 145.877,141.711 144.5,143.5C 146.833,144.833 149.167,144.833 151.5,143.5C 151.291,142.914 150.957,142.414 150.5,142C 152.608,138.66 154.108,138.827 155,142.5C 157.842,138.993 161.342,136.326 165.5,134.5C 164.667,134.167 163.833,133.833 163,133.5C 161.091,134.156 159.258,134.656 157.5,135C 157.167,134.667 156.833,134.333 156.5,134C 157.973,133.29 158.64,132.124 158.5,130.5C 161.079,130.083 163.246,130.75 165,132.5C 165.717,131.956 166.217,131.289 166.5,130.5 Z"/></g>
<g><path style="opacity:1" fill="#1d1916" d="M 21.5,114.5 C 21.9397,116.844 22.9397,118.844 24.5,120.5C 24.67,121.822 24.3366,122.989 23.5,124C 24.0944,124.464 24.7611,124.631 25.5,124.5C 25.6495,125.552 25.4828,126.552 25,127.5C 21.9299,129.26 21.7632,129.927 24.5,129.5C 24.369,130.239 24.5357,130.906 25,131.5C 28.2212,131.276 31.3878,131.276 34.5,131.5C 34.3433,132.873 34.51,134.207 35,135.5C 35.8928,134.289 36.7261,134.289 37.5,135.5C 37.0234,136.931 36.3567,138.264 35.5,139.5C 33.7367,138.046 32.4033,138.38 31.5,140.5C 34.1667,141.833 36.8333,141.833 39.5,140.5C 40.8532,139.476 41.5198,138.143 41.5,136.5C 42.404,137.209 42.7373,138.209 42.5,139.5C 44.3464,139.222 45.6798,139.889 46.5,141.5C 45.1468,142.524 44.4802,143.857 44.5,145.5C 41.4562,146.808 38.7896,146.808 36.5,145.5C 34.1676,143.332 31.501,141.665 28.5,140.5C 27.7432,143.37 26.7432,146.036 25.5,148.5C 23.2903,147.649 21.2903,146.316 19.5,144.5C 18.8333,144.833 18.1667,145.167 17.5,145.5C 17.3076,143.195 16.9743,140.862 16.5,138.5C 15.7193,137.263 14.7193,136.263 13.5,135.5C 11.3802,136.872 10.3802,136.205 10.5,133.5C 12.1992,133.66 13.8659,133.494 15.5,133C 15.0426,132.586 14.7093,132.086 14.5,131.5C 15.4415,131.511 16.1081,131.011 16.5,130C 15.1718,126.007 15.1718,121.84 16.5,117.5C 15.448,117.649 14.448,117.483 13.5,117C 15.4844,115.19 17.651,115.024 20,116.5C 21.0299,116.164 21.5299,115.497 21.5,114.5 Z"/></g>
<g><path style="opacity:1" fill="#6c5142" d="M 139.5,147.5 C 136.375,148.479 133.042,148.813 129.5,148.5C 129.689,143.629 132.023,141.962 136.5,143.5C 133.567,145.738 133.901,146.738 137.5,146.5C 138.167,144.5 138.833,142.5 139.5,140.5C 140.5,140.5 141.5,140.5 142.5,140.5C 142.64,142.124 141.973,143.29 140.5,144C 141.308,144.308 141.975,144.808 142.5,145.5C 141.398,146.176 140.398,146.842 139.5,147.5 Z"/></g>
<g><path style="opacity:1" fill="#56433e" d="M 107.5,149.5 C 108.167,147.5 108.833,145.5 109.5,143.5C 110.665,149.321 108.331,152.321 102.5,152.5C 95.9312,153.049 92.2646,150.049 91.5,143.5C 94.0701,140.934 96.7368,140.934 99.5,143.5C 104.833,141.5 106.5,143.167 104.5,148.5C 105.325,149.386 106.325,149.719 107.5,149.5 Z"/></g>
<g><path style="opacity:1" fill="#1f1713" d="M 196.5,131.5 C 198.052,133.035 199.385,134.869 200.5,137C 201.448,137.483 202.448,137.649 203.5,137.5C 203.62,138.586 204.287,139.253 205.5,139.5C 207.803,139.124 208.137,138.124 206.5,136.5C 207.725,137.152 208.392,138.319 208.5,140C 208.333,141.167 208.167,142.333 208,143.5C 204.161,141.807 200.661,139.474 197.5,136.5C 196.571,137.689 196.238,139.022 196.5,140.5C 188.64,142.219 180.64,142.885 172.5,142.5C 172.068,148.299 171.068,153.966 169.5,159.5C 166.843,159.838 164.51,159.171 162.5,157.5C 161.876,155.042 160.376,153.376 158,152.5C 157.383,151.551 157.549,150.718 158.5,150C 155.081,149.479 151.748,148.645 148.5,147.5C 146.589,149.702 144.255,151.369 141.5,152.5C 138.07,150.008 134.57,150.008 131,152.5C 129.951,150.893 128.451,150.227 126.5,150.5C 126.285,148.821 126.952,147.821 128.5,147.5C 128.5,148.167 128.833,148.5 129.5,148.5C 133.042,148.813 136.375,148.479 139.5,147.5C 142.135,146.858 144.802,146.191 147.5,145.5C 149.858,145.753 152.192,146.086 154.5,146.5C 154.5,145.5 154.5,144.5 154.5,143.5C 157.043,142.643 159.377,141.31 161.5,139.5C 163.199,140.815 164.865,140.815 166.5,139.5C 171.074,140.894 175.408,140.227 179.5,137.5C 179.833,137.5 180.167,137.5 180.5,137.5C 183.064,137.979 185.564,138.645 188,139.5C 190.2,138.478 192.2,137.145 194,135.5C 194.492,134.451 194.326,133.451 193.5,132.5C 194.325,131.614 195.325,131.281 196.5,131.5 Z"/></g>
<g><path style="opacity:1" fill="#535150" d="M 206.5,136.5 C 208.137,138.124 207.803,139.124 205.5,139.5C 204.287,139.253 203.62,138.586 203.5,137.5C 204.391,136.89 205.391,136.557 206.5,136.5 Z"/></g>
<g><path style="opacity:1" fill="#261c17" d="M 91.5,143.5 C 92.2646,150.049 95.9312,153.049 102.5,152.5C 102.616,155.91 100.95,157.244 97.5,156.5C 95.9557,156.703 94.6223,157.37 93.5,158.5C 92.0678,155.673 91.4012,152.673 91.5,149.5C 88.008,149.63 84.6747,150.13 81.5,151C 78.9756,149.117 77.6423,146.617 77.5,143.5C 75.139,143.326 72.8056,142.993 70.5,142.5C 70.5,141.167 70.5,139.833 70.5,138.5C 72.2327,139.008 72.566,139.841 71.5,141C 74.3927,141.501 76.8927,142.667 79,144.5C 80.2692,143.095 80.7692,141.429 80.5,139.5C 82.6847,139.112 84.518,138.112 86,136.5C 87.5971,137.885 89.4305,138.551 91.5,138.5C 91.5,140.167 91.5,141.833 91.5,143.5 Z"/></g>
</svg>
